<svg width="67" height="28" viewBox="0 0 67 28" fill="none" xmlns="http://www.w3.org/2000/svg">
<path d="M12.8619 9.168H11.8899V16.164H12.7419C14.3859 16.164 16.0299 16.044 17.8659 15.672L17.7459 14.856C16.0059 15.204 14.4099 15.336 12.8619 15.336V9.168ZM21.4659 12.42H19.7379V8.124H18.7539V18.888H19.7379V13.236H21.4659V12.42ZM26.3889 8.916C24.7209 8.916 23.5089 9.936 23.5089 11.448C23.5089 12.948 24.7209 13.98 26.3889 13.98C28.0689 13.98 29.2689 12.948 29.2689 11.448C29.2689 9.936 28.0689 8.916 26.3889 8.916ZM26.3889 9.756C27.5049 9.756 28.3089 10.44 28.3089 11.448C28.3089 12.444 27.5049 13.14 26.3889 13.14C25.2849 13.14 24.4689 12.444 24.4689 11.448C24.4689 10.44 25.2849 9.756 26.3889 9.756ZM30.6849 8.124V18.912H31.6689V8.124H30.6849ZM23.0889 16.548C25.0329 16.548 27.6369 16.524 30.0609 16.08L29.9769 15.348C27.6249 15.708 24.9249 15.72 22.9689 15.72L23.0889 16.548ZM43.168 8.124H42.184V13.644H43.168V8.124ZM35.536 10.908C35.536 9.972 36.316 9.312 37.36 9.312C38.416 9.312 39.184 9.972 39.184 10.908C39.184 11.832 38.416 12.492 37.36 12.492C36.316 12.492 35.536 11.832 35.536 10.908ZM40.144 10.908C40.144 9.48 38.968 8.508 37.36 8.508C35.752 8.508 34.588 9.48 34.588 10.908C34.588 12.324 35.752 13.284 37.36 13.284C38.968 13.284 40.144 12.324 40.144 10.908ZM37.192 17.964V16.776H43.168V14.172H36.196V14.952H42.196V16.044H36.22V18.744H43.528V17.964H37.192ZM51.9911 13.188C50.4431 12.66 49.3871 11.316 49.3871 9.864V8.676H48.4031V9.78C48.4031 11.424 47.3591 12.888 45.7271 13.476L46.2431 14.256C47.5031 13.776 48.4631 12.792 48.9071 11.532C49.3871 12.636 50.3111 13.524 51.4751 13.956L51.9911 13.188ZM50.7071 18.108C49.1111 18.108 48.1391 17.664 48.1391 16.92C48.1391 16.164 49.1111 15.72 50.7071 15.72C52.2911 15.72 53.2631 16.164 53.2631 16.92C53.2631 17.664 52.2911 18.108 50.7071 18.108ZM50.7071 14.952C48.5111 14.952 47.1551 15.66 47.1551 16.92C47.1551 18.168 48.5111 18.876 50.7071 18.876C52.8911 18.876 54.2471 18.168 54.2471 16.92C54.2471 15.66 52.8911 14.952 50.7071 14.952ZM54.1271 10.908V8.136H53.1431V14.652H54.1271V11.724H55.7231V10.908H54.1271Z" fill="black"/>
<rect x="1" y="1" width="65" height="26" rx="9" stroke="#C2C2F9" stroke-opacity="0.75" stroke-width="2"/>
</svg>
