<svg width="67" height="28" viewBox="0 0 67 28" fill="none" xmlns="http://www.w3.org/2000/svg">
<path d="M12.8139 10.236H15.8499V9.432H11.8419V16.236H12.5499C14.1579 16.236 15.2499 16.188 16.5339 15.912L16.4499 15.096C15.2739 15.348 14.2539 15.408 12.8139 15.42V10.236ZM19.6539 8.124V12.444H18.1299V8.364H17.2059V18.348H18.1299V13.248H19.6539V18.888H20.6019V8.124H19.6539ZM24.4689 11.34C24.4689 10.344 25.2849 9.66 26.3769 9.66C27.5049 9.66 28.3089 10.344 28.3089 11.34C28.3089 12.348 27.5049 13.044 26.3769 13.044C25.2849 13.044 24.4689 12.348 24.4689 11.34ZM26.8689 13.848C28.2969 13.68 29.2689 12.696 29.2689 11.34C29.2689 9.84 28.0689 8.82 26.3769 8.82C24.7209 8.82 23.5089 9.84 23.5089 11.34C23.5089 12.696 24.4929 13.668 25.8849 13.848V15.708C24.8289 15.744 23.8329 15.744 22.9689 15.744L23.0889 16.572C25.0329 16.572 27.6369 16.548 30.0609 16.104L29.9769 15.372C28.9809 15.528 27.9129 15.612 26.8689 15.672V13.848ZM30.6849 8.112V18.912H31.6689V8.112H30.6849ZM40.732 8.94H38.14V8.016H37.156V8.94H34.552V9.648H40.732V8.94ZM36.064 11.4C36.064 10.92 36.676 10.632 37.648 10.632C38.608 10.632 39.22 10.92 39.22 11.4C39.22 11.88 38.608 12.18 37.648 12.18C36.676 12.18 36.064 11.88 36.064 11.4ZM41.056 13.188C40.132 13.308 39.124 13.392 38.14 13.44V12.804C39.376 12.696 40.156 12.192 40.156 11.4C40.156 10.512 39.16 9.984 37.648 9.984C36.112 9.984 35.128 10.512 35.128 11.4C35.128 12.204 35.908 12.708 37.156 12.804V13.464C36.124 13.5 35.128 13.5 34.288 13.5L34.396 14.232C36.28 14.232 38.824 14.22 41.116 13.812L41.056 13.188ZM36.7 17.148H42.676V14.952H35.704V15.648H41.704V16.488H35.74V18.768H43.084V18.06H36.7V17.148ZM42.676 10.872V8.124H41.692V14.484H42.676V11.7H44.26V10.872H42.676ZM50.6471 18.12C48.9431 18.12 47.9471 17.7 47.9471 16.944C47.9471 16.188 48.9431 15.768 50.6471 15.768C52.3271 15.768 53.3231 16.188 53.3231 16.944C53.3231 17.7 52.3271 18.12 50.6471 18.12ZM50.6471 15C48.3431 15 46.9511 15.696 46.9511 16.944C46.9511 18.192 48.3431 18.888 50.6471 18.888C52.9271 18.888 54.3191 18.192 54.3191 16.944C54.3191 15.696 52.9271 15 50.6471 15ZM51.1391 13.44V12.192H54.3791V11.4H47.9831V9.408H54.3071V8.616H46.9991V12.192H50.1551V13.44H45.7751V14.232H55.5191V13.44H51.1391Z" fill="black"/>
<rect x="1" y="1" width="65" height="26" rx="9" stroke="#B1F7B1" stroke-opacity="0.75" stroke-width="2"/>
</svg>
