<svg width="45" height="28" viewBox="0 0 45 28" fill="none" xmlns="http://www.w3.org/2000/svg">
<path d="M17.3329 13.932C17.4049 13.56 17.4529 13.152 17.4529 12.708C17.4529 12.216 17.3929 11.76 17.2969 11.34H19.7809V13.932H17.3329ZM14.7769 15.588C13.7449 15.588 13.0249 14.46 13.0249 12.708C13.0249 10.968 13.7449 9.84 14.7769 9.84C15.7969 9.84 16.5289 10.968 16.5289 12.708C16.5289 14.46 15.7969 15.588 14.7769 15.588ZM19.7809 8.124V10.536H17.0209C16.5649 9.528 15.7729 8.952 14.7769 8.952C13.2049 8.952 12.0889 10.416 12.0889 12.708C12.0889 15 13.2049 16.464 14.7769 16.464C15.8089 16.464 16.6489 15.828 17.0929 14.736H19.7809V18.912H20.7649V8.124H19.7809ZM30.104 11.856H31.472V14.94H32.42V8.124H31.472V11.052H30.104V8.328H29.168V14.544H30.104V11.856ZM28.736 9.408H26.504V8.208H25.532V9.408H23.276V10.188H28.748L28.736 9.408ZM24.608 12.588C24.608 11.928 25.172 11.484 26.024 11.484C26.864 11.484 27.44 11.928 27.44 12.588C27.44 13.26 26.864 13.704 26.024 13.704C25.172 13.704 24.608 13.26 24.608 12.588ZM28.316 12.588C28.316 11.484 27.38 10.752 26.024 10.752C24.668 10.752 23.72 11.484 23.72 12.588C23.72 13.716 24.668 14.436 26.024 14.436C27.38 14.436 28.316 13.716 28.316 12.588ZM28.88 18.12C27.236 18.12 26.252 17.712 26.252 17.004C26.252 16.284 27.236 15.876 28.88 15.876C30.512 15.876 31.496 16.284 31.496 17.004C31.496 17.712 30.512 18.12 28.88 18.12ZM28.88 15.12C26.636 15.12 25.28 15.792 25.28 17.004C25.28 18.204 26.636 18.876 28.88 18.876C31.124 18.876 32.48 18.204 32.48 17.004C32.48 15.792 31.124 15.12 28.88 15.12Z" fill="black"/>
<rect x="1" y="1" width="43" height="26" rx="9" stroke="#FDD181" stroke-opacity="0.75" stroke-width="2"/>
</svg>
